# xmcd
#
# Track frame offsets:
#	187
#	21892
#	55845
#	98547
#	145870
#	171322
#	207285
#	224620
#	283257
#	299485
#
# Disc length: 4425 seconds
#
# Revision: 1
# Processed by: cddbd v1.5.1PL0 Copyright (c) Steve Scherf et al.
# Submitted via: CDex 1.50Beta5
#
DISCID=a011470a
DTITLE=Mrs.Brown - Mrs.Brown 09 くつろぎの20時
DYEAR=1900
DGENRE=Classical
TTITLE0=モーツァルト/ホルン協奏曲第1番より 第1楽章/モーツァルト
TTITLE1=J.S.バッハ/二つのヴァイオリンのための協奏曲ニ短調より 第2楽章/J.S.バッハ
TTITLE2=アルビノーニ/アルビノーニのアダージョ/アルビノーニ
TTITLE3=マーラー/交響曲第1番「巨人」より 第3楽章/マーラー
TTITLE4=パーセル/シャコンヌ ト短調/パーセル
TTITLE5=モーツァルト/交響曲第40番より 第1楽章/モーツァルト
TTITLE6=ショパン/ノクターン第20番嬰ハ短調/ショパン
TTITLE7=J.シュトラウス/ワルツ「ウィーンの森の物語」/J.シュトラウス
TTITLE8=カザルス/鳥の歌/カザルス
TTITLE9=バーバー/弦楽のためのアダージョ/バーバー
EXTD=
EXTT0=
EXTT1=
EXTT2=
EXTT3=
EXTT4=
EXTT5=
EXTT6=
EXTT7=
EXTT8=
EXTT9=
PLAYORDER=
